<svg xmlns="http://www.w3.org/2000/svg" width="22.389" height="30.519" viewBox="0 0 22.389 30.519">
  <g id="ic_kamus" transform="translate(-68.191)">
    <path id="Path_12" data-name="Path 12" d="M95.96,428.11l-1.5-2.384H76.918l-1.227,2.384v.449a1.862,1.862,0,0,0,1.862,1.862H95.589a.371.371,0,0,0,.371-.371v-1.94Z" transform="translate(-7.053 -400.35)" fill="#f9f6f9"/>
    <path id="Path_13" data-name="Path 13" d="M390.949,465.726v1.94a.371.371,0,0,1-.371.371h1.129a.371.371,0,0,0,.371-.371v-1.94Z" transform="translate(-303.171 -437.966)" fill="#e2dfe2"/>
    <path id="Path_14" data-name="Path 14" d="M96.907,68.76H75.691V45.46A1.862,1.862,0,0,1,77.553,43.6H96.907a.279.279,0,0,1,.279.279v24.6A.279.279,0,0,1,96.907,68.76Z" transform="translate(-7.053 -40.999)" fill="#fcb32e"/>
    <path id="Path_15" data-name="Path 15" d="M412.283,43.6h-1.226a.279.279,0,0,1,.279.279v24.6a.279.279,0,0,1-.279.279h1.226a.279.279,0,0,0,.279-.279v-24.6A.279.279,0,0,0,412.283,43.6Z" transform="translate(-322.429 -40.998)" fill="#ce9875"/>
    <path id="Path_16" data-name="Path 16" d="M78.739,68.76H75.691V45.46A1.862,1.862,0,0,1,77.553,43.6h1.186V68.76Z" transform="translate(-7.053 -40.999)" fill="#e1a029"/>
    <path id="Path_17" data-name="Path 17" d="M316.1,7.5h-.356a2.152,2.152,0,0,0-2.152,2.152h1.138a.507.507,0,0,1,.507.507v2.817a.225.225,0,0,0,.325.2l1.081-.541a.225.225,0,0,1,.2,0l1.081.541a.225.225,0,0,0,.325-.2V9.652A2.152,2.152,0,0,0,316.1,7.5Z" transform="translate(-230.774 -7.053)" fill="#e28086"/>
    <g id="Group_30" data-name="Group 30" transform="translate(84.636 0.447)">
      <path id="Path_18" data-name="Path 18" d="M344.772,7.5h-.356a2.169,2.169,0,0,0-.334.026A2.152,2.152,0,0,1,345.9,9.652v3.176l.7.35a.225.225,0,0,0,.325-.2V9.652A2.152,2.152,0,0,0,344.772,7.5Z" transform="translate(-344.082 -7.5)" fill="#dd636e"/>
    </g>
    <g id="Group_31" data-name="Group 31" transform="translate(68.191)">
      <path id="Path_21" data-name="Path 21" d="M89.854,2.152H87.885A2.6,2.6,0,0,0,85.326,0H84.97a2.6,2.6,0,0,0-2.559,2.152H74.671a.447.447,0,1,0,0,.894h9.286a.06.06,0,0,1,.06.06V5.923a.672.672,0,0,0,.972.6l.982-.491.982.491a.672.672,0,0,0,.972-.6V3.046h1.762V27.313H72.133V20.4a.447.447,0,1,0-.894,0v6.913H69.085V4.461A1.417,1.417,0,0,1,70.5,3.046h.739V18.613a.447.447,0,1,0,.894,0V3.046h.751a.447.447,0,1,0,0-.894H70.5a2.312,2.312,0,0,0-2.309,2.309V28.209A2.312,2.312,0,0,0,70.5,30.519H83.971a.447.447,0,1,0,0-.894H70.5a1.417,1.417,0,0,1-1.415-1.415v0H88.46v1.417h-2.7a.447.447,0,0,0,0,.894h2.778a.819.819,0,0,0,.818-.818V28.207h.5a.727.727,0,0,0,.726-.726V2.878a.727.727,0,0,0-.726-.726ZM87.031,5.563l-.759-.38a.675.675,0,0,0-.6,0l-.759.38V3.106a.955.955,0,0,0-.954-.954h-.632A1.708,1.708,0,0,1,84.97.894h.356a1.707,1.707,0,0,1,1.7,1.7Z" transform="translate(-68.191)"/>
      <path id="Path_25" data-name="Path 25" d="M242.483,350.744a.447.447,0,1,0,0-.894h-4.259a.447.447,0,1,0,0,.894Z" transform="translate(-227.669 -328.997)"/>
      <path id="Path_26" data-name="Path 26" d="M222.776,384.28a.447.447,0,0,0,.447.447h6.047a.447.447,0,0,0,0-.894h-6.047A.447.447,0,0,0,222.776,384.28Z" transform="translate(-213.562 -360.954)"/>
      <text id="Abc" transform="translate(6 15)" font-size="7" font-family="Calibri-Bold, Calibri" font-weight="700"><tspan x="0" y="0">Abc</tspan></text>
    </g>
  </g>
</svg>
